<svg width="30" height="30" viewBox="0 0 30 30" fill="none" xmlns="http://www.w3.org/2000/svg">
<path d="M18.75 3.75H11.25C8.48858 3.75 6.25 5.98858 6.25 8.75V18.75" stroke="white" stroke-width="2"/>
<path d="M16.875 8.5C18.3641 8.5 19.3973 8.50175 20.1875 8.59082C20.9574 8.67762 21.372 8.83679 21.6738 9.06836C21.8645 9.21466 22.0353 9.38551 22.1816 9.57617C22.4132 9.87802 22.5724 10.2926 22.6592 11.0625C22.7482 11.8527 22.75 12.8859 22.75 14.375V19.375C22.75 20.8641 22.7482 21.8973 22.6592 22.6875C22.5724 23.4574 22.4132 23.872 22.1816 24.1738C22.0353 24.3645 21.8645 24.5353 21.6738 24.6816C21.372 24.9132 20.9574 25.0724 20.1875 25.1592C19.3973 25.2482 18.3641 25.25 16.875 25.25C15.3859 25.25 14.3527 25.2482 13.5625 25.1592C12.7926 25.0724 12.378 24.9132 12.0762 24.6816C11.8855 24.5353 11.7147 24.3645 11.5684 24.1738C11.3368 23.872 11.1776 23.4574 11.0908 22.6875C11.0018 21.8973 11 20.8641 11 19.375V14.375C11 12.8859 11.0018 11.8527 11.0908 11.0625C11.1776 10.2926 11.3368 9.87802 11.5684 9.57617C11.7147 9.38551 11.8855 9.21466 12.0762 9.06836C12.378 8.83679 12.7926 8.67762 13.5625 8.59082C14.3527 8.50175 15.3859 8.5 16.875 8.5Z" stroke="white" stroke-width="2"/>
</svg>
