<svg width="30" height="31" viewBox="0 0 30 31" fill="none" xmlns="http://www.w3.org/2000/svg">
<path d="M26.1298 14.8807C26.1298 20.9932 21.6923 26.7181 15.6298 28.3931C15.2173 28.5056 14.7673 28.5056 14.3548 28.3931C8.29229 26.7181 3.8548 20.9932 3.8548 14.8807V9.39313C3.8548 8.36813 4.62982 7.20564 5.59232 6.81814L12.5548 3.96818C14.1173 3.33068 15.8798 3.33068 17.4423 3.96818L24.4048 6.81814C25.3548 7.20564 26.1423 8.36813 26.1423 9.39313L26.1298 14.8807Z" stroke="white" stroke-width="1.5" stroke-linecap="round" stroke-linejoin="round"/>
<path d="M14.9923 16.6057C16.373 16.6057 17.4923 15.4864 17.4923 14.1057C17.4923 12.7249 16.373 11.6057 14.9923 11.6057C13.6116 11.6057 12.4923 12.7249 12.4923 14.1057C12.4923 15.4864 13.6116 16.6057 14.9923 16.6057Z" stroke="white" stroke-width="1.5" stroke-miterlimit="10" stroke-linecap="round" stroke-linejoin="round"/>
<path d="M14.9923 16.6057V20.3557" stroke="white" stroke-width="1.5" stroke-miterlimit="10" stroke-linecap="round" stroke-linejoin="round"/>
</svg>
