<svg width="40" height="39" viewBox="0 0 40 39" fill="none" xmlns="http://www.w3.org/2000/svg">
<path d="M27.1814 24.0129C27.1091 24.1328 27.033 24.2512 26.9531 24.3681C24.4969 27.9574 19.3175 28.6854 15.3845 25.9941C11.4516 23.3028 10.2544 18.2113 12.7105 14.622C13.5535 13.3901 14.7173 12.4952 16.0414 11.96C13.8944 15.5231 15.1388 20.3732 18.9437 22.9769C21.5268 24.7445 24.6476 25.0371 27.1814 24.0129Z" fill="#FFFBFB"/>
<path d="M28.1962 15.4038L28.1962 15.4038C27.8879 15.3158 27.7338 15.2717 27.6505 15.2761C27.3214 15.2934 27.0987 15.6188 27.2018 15.9318C27.2279 16.0111 27.3248 16.1388 27.5185 16.3942L27.5185 16.3942C27.6748 16.6002 27.7529 16.7032 27.8147 16.8096C28.0451 17.2064 28.1321 17.6704 28.061 18.1237C28.0419 18.2452 28.0064 18.3695 27.9354 18.6182L27.9354 18.6182C27.8473 18.9264 27.8032 19.0805 27.8076 19.1639C27.8249 19.493 28.1503 19.7156 28.4633 19.6126C28.5426 19.5865 28.6703 19.4896 28.9257 19.2959L28.9257 19.2959C29.1317 19.1396 29.2347 19.0614 29.3411 18.9997C29.7379 18.7692 30.2019 18.6823 30.6552 18.7534C30.7767 18.7724 30.9011 18.8079 31.1497 18.879C31.4579 18.9671 31.612 19.0111 31.6954 19.0067C32.0245 18.9894 32.2471 18.6641 32.1441 18.3511C32.118 18.2718 32.0211 18.1441 31.8274 17.8887C31.6711 17.6826 31.593 17.5796 31.5312 17.4733C31.3008 17.0764 31.2138 16.6124 31.2849 16.1591C31.3039 16.0376 31.3394 15.9133 31.4105 15.6647C31.4986 15.3564 31.5426 15.2023 31.5382 15.1189C31.5209 14.7899 31.1956 14.5672 30.8826 14.6703C30.8033 14.6964 30.6756 14.7932 30.4202 14.987C30.2141 15.1433 30.1111 15.2214 30.0048 15.2832C29.608 15.5136 29.144 15.6006 28.6906 15.5295C28.5691 15.5104 28.4448 15.4749 28.1962 15.4038Z" fill="#FFFBFB"/>
</svg>
