<svg width="20" height="20" viewBox="0 0 20 20" fill="none" xmlns="http://www.w3.org/2000/svg">
<path d="M12.2282 4.93945C12.408 4.90631 12.5924 4.90629 12.7722 4.93945C13.041 4.98906 13.2578 5.12241 13.4548 5.28223C13.645 5.43658 13.8566 5.64983 14.1032 5.89648C14.3499 6.14313 14.5631 6.35471 14.7175 6.54492C14.8773 6.7419 15.0116 6.95874 15.0612 7.22754C15.0944 7.40741 15.0944 7.59259 15.0612 7.77246C15.0116 8.04126 14.8773 8.2581 14.7175 8.45508C14.5631 8.64529 14.3499 8.85687 14.1032 9.10352L8.24481 14.9619C8.06914 15.1376 7.91897 15.2943 7.72821 15.4023C7.53721 15.5105 7.32499 15.5588 7.08368 15.6191L5.09637 16.1162C4.93218 16.1573 4.75371 16.2032 4.60516 16.2178C4.45051 16.2329 4.18952 16.2296 3.98016 16.0205C3.77075 15.8111 3.76678 15.5493 3.78192 15.3945C3.79649 15.246 3.84246 15.0674 3.88348 14.9033L4.38055 12.916C4.44083 12.6749 4.48936 12.4633 4.59735 12.2725C4.70544 12.0816 4.86201 11.9306 5.03778 11.7549L10.8962 5.89648C11.1429 5.64976 11.3553 5.43661 11.5456 5.28223C11.7425 5.12246 11.9594 4.98903 12.2282 4.93945Z" stroke="#96A8B8"/>
<path d="M10.4167 6.25001L12.9167 4.58334L15.4167 7.08334L13.75 9.58334L10.4167 6.25001Z" fill="#96A8B8"/>
</svg>
