<svg width="24" height="25" viewBox="0 0 24 25" fill="none" xmlns="http://www.w3.org/2000/svg">
<path d="M3.00763 7.25684H19.0076C20.1122 7.25684 21.0076 8.15227 21.0076 9.25684H3.00763V7.25684Z" fill="#E1E7FD"/>
<path d="M3.00763 11.2568H21.0076V15.4568C21.0076 17.137 21.0076 17.9771 20.6806 18.6188C20.393 19.1833 19.9341 19.6422 19.3696 19.9299C18.7279 20.2568 17.8878 20.2568 16.2076 20.2568H7.80763C6.12747 20.2568 5.28739 20.2568 4.64566 19.9299C4.08117 19.6422 3.62223 19.1833 3.33461 18.6188C3.00763 17.9771 3.00763 17.137 3.00763 15.4568V11.2568Z" fill="#E1E7FD"/>
<path d="M3.00763 7.25684C3.00763 6.32495 3.00763 5.85901 3.15987 5.49147C3.36286 5.00141 3.75221 4.61206 4.24226 4.40908C4.6098 4.25684 5.07575 4.25684 6.00763 4.25684H8.35078C9.16828 4.25684 9.57703 4.25684 9.94457 4.40908C10.3121 4.56132 10.6011 4.85035 11.1792 5.42841L13.0076 7.25684H3.00763Z" fill="#E1E7FD"/>
</svg>
