<svg width="29" height="22" viewBox="0 0 29 22" fill="none" xmlns="http://www.w3.org/2000/svg">
<path d="M2.14258 7.4021H4.35742V13.9734H2.14258C1.83957 13.9733 1.54922 13.8527 1.33496 13.6384C1.12071 13.4241 1.00004 13.1338 1 12.8308V8.54468C1.00007 8.24167 1.1207 7.95132 1.33496 7.73706C1.54922 7.5228 1.83957 7.40217 2.14258 7.4021Z" fill="white" stroke="#FBFBFF" stroke-width="2" stroke-linecap="round" stroke-linejoin="round"/>
<mask id="path-2-inside-1_89_169" fill="white">
<path d="M5.35715 14.9735L13.7357 20.995C14.0461 21.2098 14.4078 21.3387 14.7841 21.3688C15.1604 21.3989 15.5379 21.3291 15.8786 21.1664C16.248 21.0005 16.5628 20.7332 16.7866 20.3957C17.0103 20.0582 17.1339 19.6641 17.1429 19.2593V2.1164C17.152 1.73159 17.0574 1.35141 16.8688 1.01582C16.6803 0.680224 16.4049 0.401612 16.0714 0.209259C15.7308 0.0465555 15.3532 -0.023278 14.977 0.00682513C14.6007 0.0369282 14.239 0.1659 13.9286 0.380688L5.35715 6.40212"/>
</mask>
<path d="M5.35715 14.9735L13.7357 20.995C14.0461 21.2098 14.4078 21.3387 14.7841 21.3688C15.1604 21.3989 15.5379 21.3291 15.8786 21.1664C16.248 21.0005 16.5628 20.7332 16.7866 20.3957C17.0103 20.0582 17.1339 19.6641 17.1429 19.2593V2.1164C17.152 1.73159 17.0574 1.35141 16.8688 1.01582C16.6803 0.680224 16.4049 0.401612 16.0714 0.209259C15.7308 0.0465555 15.3532 -0.023278 14.977 0.00682513C14.6007 0.0369282 14.239 0.1659 13.9286 0.380688L5.35715 6.40212" fill="white"/>
<path d="M6.52433 13.3495C5.62737 12.7048 4.37767 12.9094 3.73306 13.8064C3.08844 14.7033 3.293 15.953 4.18996 16.5976L6.52433 13.3495ZM13.7357 20.995L12.5685 22.6191C12.5782 22.626 12.5879 22.6329 12.5977 22.6397L13.7357 20.995ZM15.8786 21.1664L15.0591 19.342C15.0448 19.3484 15.0306 19.355 15.0166 19.3617L15.8786 21.1664ZM17.1429 19.2593L19.1424 19.3037C19.1427 19.2889 19.1429 19.2741 19.1429 19.2593H17.1429ZM17.1429 2.1164L15.1434 2.06878C15.1431 2.08465 15.1429 2.10053 15.1429 2.1164H17.1429ZM16.0714 0.209259L17.0709 -1.52312C17.026 -1.54899 16.9802 -1.57312 16.9335 -1.59543L16.0714 0.209259ZM13.9286 0.380688L12.7906 -1.264C12.7867 -1.2613 12.7828 -1.25858 12.7789 -1.25585L13.9286 0.380688ZM4.20748 4.76558C3.30364 5.40052 3.08566 6.64795 3.72061 7.55178C4.35555 8.45562 5.60298 8.6736 6.50682 8.03866L4.20748 4.76558ZM5.35715 14.9735L4.18996 16.5976L12.5685 22.6191L13.7357 20.995L14.9029 19.3709L6.52433 13.3495L5.35715 14.9735ZM13.7357 20.995L12.5977 22.6397C13.1979 23.0549 13.8971 23.3043 14.6246 23.3625L14.7841 21.3688L14.9436 19.3752C14.9185 19.3732 14.8944 19.3646 14.8737 19.3503L13.7357 20.995ZM14.7841 21.3688L14.6246 23.3625C15.3521 23.4207 16.0821 23.2857 16.7406 22.9711L15.8786 21.1664L15.0166 19.3617C14.9938 19.3726 14.9687 19.3772 14.9436 19.3752L14.7841 21.3688ZM15.8786 21.1664L16.6981 22.9908C17.4123 22.67 18.021 22.1534 18.4536 21.5008L16.7866 20.3957L15.1196 19.2906C15.1047 19.3131 15.0837 19.3309 15.0591 19.342L15.8786 21.1664ZM16.7866 20.3957L18.4536 21.5008C18.8862 20.8482 19.125 20.0864 19.1424 19.3037L17.1429 19.2593L15.1434 19.2149C15.1428 19.2419 15.1345 19.2681 15.1196 19.2906L16.7866 20.3957ZM17.1429 19.2593H19.1429V2.1164H17.1429H15.1429V19.2593H17.1429ZM17.1429 2.1164L19.1423 2.16402C19.16 1.42005 18.977 0.685035 18.6125 0.0362231L16.8688 1.01582L15.1252 1.99541C15.1377 2.01778 15.144 2.04312 15.1434 2.06878L17.1429 2.1164ZM16.8688 1.01582L18.6125 0.0362231C18.248 -0.612588 17.7155 -1.15124 17.0709 -1.52312L16.0714 0.209259L15.072 1.94164C15.0942 1.95446 15.1126 1.97304 15.1252 1.99541L16.8688 1.01582ZM16.0714 0.209259L16.9335 -1.59543C16.2749 -1.90999 15.545 -2.045 14.8175 -1.98681L14.977 0.00682513L15.1364 2.00046C15.1615 1.99845 15.1867 2.0031 15.2094 2.01395L16.0714 0.209259ZM14.977 0.00682513L14.8175 -1.98681C14.09 -1.92861 13.3908 -1.67926 12.7906 -1.264L13.9286 0.380688L15.0666 2.02538C15.0872 2.01106 15.1114 2.00246 15.1364 2.00046L14.977 0.00682513ZM13.9286 0.380688L12.7789 -1.25585L4.20748 4.76558L5.35715 6.40212L6.50682 8.03866L15.0782 2.01723L13.9286 0.380688Z" fill="#FBFBFF" mask="url(#path-2-inside-1_89_169)"/>
<path d="M27.8571 7.47351L21.4286 13.9021" stroke="#FBFBFF" stroke-width="2" stroke-linecap="round" stroke-linejoin="round"/>
<path d="M21.4286 7.47351L27.8571 13.9021" stroke="#FBFBFF" stroke-width="2" stroke-linecap="round" stroke-linejoin="round"/>
</svg>
