<svg width="25" height="25" viewBox="0 0 25 25" fill="none" xmlns="http://www.w3.org/2000/svg">
<path d="M16.9643 2.67856H19.6428C20.1164 2.67856 20.5706 2.8667 20.9055 3.20158C21.2404 3.53647 21.4286 3.99067 21.4286 4.46427V22.3214C21.4286 22.795 21.2404 23.2492 20.9055 23.5841C20.5706 23.919 20.1164 24.1071 19.6428 24.1071H5.35713C4.88352 24.1071 4.42932 23.919 4.09443 23.5841C3.75955 23.2492 3.57141 22.795 3.57141 22.3214V4.46427C3.57141 3.99067 3.75955 3.53647 4.09443 3.20158C4.42932 2.8667 4.88352 2.67856 5.35713 2.67856H8.0357" stroke="white" stroke-linecap="round" stroke-linejoin="round"/>
<path d="M15.1785 0.892853H9.82136C8.83514 0.892853 8.03564 1.69234 8.03564 2.67857V3.57142C8.03564 4.55765 8.83514 5.35714 9.82136 5.35714H15.1785C16.1647 5.35714 16.9642 4.55765 16.9642 3.57142V2.67857C16.9642 1.69234 16.1647 0.892853 15.1785 0.892853Z" stroke="white" stroke-linecap="round" stroke-linejoin="round"/>
</svg>
