<svg width="29" height="31" viewBox="0 0 29 31" fill="none" xmlns="http://www.w3.org/2000/svg">
<path d="M3 3V28" stroke="white" stroke-width="5" stroke-linecap="round" stroke-linejoin="round"/>
<path d="M27.9616 24.4615C27.9625 24.8075 27.8703 25.1472 27.6946 25.4451C27.5188 25.7429 27.2662 25.9878 26.9631 26.1538C26.6712 26.3226 26.3401 26.4115 26.0031 26.4115C25.666 26.4115 25.3349 26.3226 25.043 26.1538L11.2373 17.1154C10.9678 16.941 10.7463 16.7018 10.5928 16.4197C10.4394 16.1375 10.359 15.8213 10.359 15.5C10.359 15.1787 10.4394 14.8625 10.5928 14.5803C10.7463 14.2981 10.9678 14.0589 11.2373 13.8846L25.0814 4.92305C25.3733 4.75426 25.7044 4.66541 26.0415 4.66541C26.3785 4.66541 26.7096 4.75426 27.0015 4.92305C27.3046 5.0891 27.5572 5.33395 27.733 5.63178C27.9087 5.92962 28.0009 6.26941 28 6.61536L27.9616 24.4615Z" fill="white" stroke="white" stroke-linecap="round" stroke-linejoin="round"/>
</svg>
